<?xml version="1.0" encoding="UTF-8" standalone="no"?>
<svg
   class="brand-logo"
   version="1.1"
   id="kettenbeil-logo-svg"
   viewBox="0 0 299.99999 300.00001"
   height="28px"
   width="28px"
   sodipodi:docname="kettenbeil-logo_neu.svg"
   inkscape:version="1.4.2 (ebf0e940, 2025-05-08)"
   xmlns:inkscape="http://www.inkscape.org/namespaces/inkscape"
   xmlns:sodipodi="http://sodipodi.sourceforge.net/DTD/sodipodi-0.dtd"
   xmlns="http://www.w3.org/2000/svg"
   xmlns:svg="http://www.w3.org/2000/svg">
  <defs
     id="defs1" />
  <sodipodi:namedview
     id="namedview1"
     pagecolor="#505050"
     bordercolor="#eeeeee"
     borderopacity="1"
     inkscape:showpageshadow="0"
     inkscape:pageopacity="0"
     inkscape:pagecheckerboard="0"
     inkscape:deskcolor="#505050"
     inkscape:zoom="0.92857143"
     inkscape:cx="13.461538"
     inkscape:cy="13.461538"
     inkscape:window-width="1440"
     inkscape:window-height="900"
     inkscape:window-x="0"
     inkscape:window-y="0"
     inkscape:window-maximized="0"
     inkscape:current-layer="kettenbeil-logo-svg" />
  <g
     transform="translate(0,-752.36214)"
     id="layer1">
    <g
       style="fill: #ffffff"
       id="g80"
       transform="matrix(1.25,0,0,-1.25,-125.74979,1526.7507)">
      <g
         style="fill: #ffffff"
         clip-path="url(#clipPath84)"
         id="g82">
        <g
           style="fill: #ffffff"
           transform="translate(268.4277,517.2104)"
           id="g88">
          <path
             id="path90"
             style="               fill: #ffffff;               fill-opacity: 0;               stroke: #ffffff;               stroke-width: 12;               stroke-linecap: butt;               stroke-linejoin: miter;               stroke-miterlimit: 4;               stroke-dasharray: none;               stroke-opacity: 1;             "
             d="m 0,0 c 0,0 29.621,-14.659 37.722,-13.469 5.156,0.757 10.116,-23.64 -5.366,-33.928 -10.319,-6.859 -76.583,21.185 -166.17,83.082 0,0 -2.714,69.646 33.38,58.013 0,0 7.635227,-5.65029 17.879707,-14.278048 C -62.243415,62.314415 -31.676163,33.505141 -30.021,13.822 c 4.526,-53.848 -15.717,-120.649 1.745,-138.572 26.102,-26.794 -194.062,49.479 -45.48,39.361 0,0 64.125,93.404 73.756,85.389 z" />
        </g>
      </g>
    </g>
  </g>
</svg>
