<!DOCTYPE svg PUBLIC "-//W3C//DTD SVG 1.1//EN" "http://www.w3.org/Graphics/SVG/1.1/DTD/svg11.dtd">
<!-- Uploaded to: SVG Repo, www.svgrepo.com, Transformed by: SVG Repo Mixer Tools -->
<svg fill="#ffffff" height="64px" width="64px" version="1.1" id="Capa_1" xmlns="http://www.w3.org/2000/svg" xmlns:xlink="http://www.w3.org/1999/xlink" viewBox="0 0 297.613 297.613" xml:space="preserve">
<g id="SVGRepo_bgCarrier" stroke-width="0"/>
<g id="SVGRepo_tracerCarrier" stroke-linecap="round" stroke-linejoin="round"/>
<g id="SVGRepo_iconCarrier"> <g> <circle cx="15.279" cy="14.83" r="14.83"/> <circle cx="59.32" cy="59.769" r="14.83"/> <circle cx="59.32" cy="14.83" r="14.83"/> <circle cx="104.261" cy="59.769" r="14.83"/> <circle cx="104.261" cy="103.81" r="14.83"/> <circle cx="104.261" cy="14.83" r="14.83"/> <circle cx="148.302" cy="59.769" r="14.83"/> <circle cx="148.302" cy="103.81" r="14.83"/> <circle cx="148.302" cy="14.83" r="14.83"/> <circle cx="192.343" cy="59.769" r="14.83"/> <circle cx="192.343" cy="103.81" r="14.83"/> <circle cx="148.302" cy="147.852" r="14.83"/> <circle cx="192.343" cy="147.852" r="14.83"/> <circle cx="104.261" cy="192.79" r="14.831"/> <circle cx="148.302" cy="192.79" r="14.831"/> <circle cx="192.343" cy="192.79" r="14.831"/> <circle cx="59.32" cy="236.887" r="14.83"/> <circle cx="104.261" cy="236.887" r="14.83"/> <circle cx="148.302" cy="236.887" r="14.83"/> <circle cx="192.343" cy="236.887" r="14.83"/> <circle cx="238.238" cy="103.81" r="14.83"/> <circle cx="238.238" cy="147.852" r="14.83"/> <circle cx="238.238" cy="192.79" r="14.831"/> <circle cx="15.279" cy="282.782" r="14.831"/> <circle cx="59.32" cy="282.782" r="14.831"/> <circle cx="104.261" cy="282.782" r="14.831"/> <circle cx="148.302" cy="282.782" r="14.831"/> <circle cx="282.334" cy="147.852" r="14.83"/> </g> </g>
</svg>